<svg width="58" height="58" viewBox="0 0 58 58" fill="none" xmlns="http://www.w3.org/2000/svg">
<g clip-path="url(#clip0_1_253)">
<path d="M29 57.5397C44.762 57.5397 57.5397 44.762 57.5397 29C57.5397 13.238 44.762 0.460327 29 0.460327C13.238 0.460327 0.460316 13.238 0.460316 29C0.460316 44.762 13.238 57.5397 29 57.5397Z" stroke="black" stroke-width="1.01587"/>
<path d="M38.3772 23.2675C38.298 22.9876 37.9113 23.006 37.8708 23.2942C37.6287 24.9836 39.0207 28.98 38.5235 30.8287C38.5201 30.8409 38.5167 30.8532 38.5134 30.8655C38.4057 31.2614 37.8377 31.184 37.8331 30.7725C37.8165 29.1752 37.4077 27.4279 36.5313 26.3581C33.229 22.3285 36.7559 19.3548 36.6252 18.3909C36.6223 18.3613 36.6126 18.3327 36.5969 18.3074C36.5812 18.2821 36.5599 18.2608 36.5346 18.245C36.5093 18.2293 36.4808 18.2195 36.4512 18.2166C36.4215 18.2136 36.3916 18.2175 36.3637 18.228C36.3591 18.2298 36.3554 18.2307 36.3545 18.2326C36.1428 18.3522 35.9458 18.4968 35.7488 18.6376C34.4276 19.5822 33.217 20.7183 32.5173 22.2493C32.1159 23.1294 32.0101 24.1117 31.7808 25.0462C31.6924 25.4015 31.5921 25.7532 31.4742 26.0994C31.3426 26.4879 31.1585 26.8782 30.8666 27.1664C30.7359 27.2953 30.5766 27.3901 30.3999 27.4251C29.9359 27.5172 29.6901 27.1857 29.6017 26.7963C29.3559 25.7118 29.5372 24.6162 29.6293 23.5244C29.9994 19.1293 25.341 18.7205 27.0423 12.311C27.4934 10.6134 21.3988 16.1952 23.4518 21.0515C23.8541 22.0016 23.8164 22.9075 23.3616 23.8226C22.8764 24.7985 22.2789 25.6805 21.9843 26.7484C21.8794 27.1323 21.8195 27.5208 21.7726 27.9149C21.7127 28.4221 21.8554 29.1853 21.2046 29.317C20.9339 29.3722 20.5601 29.3419 20.3355 29.1605C20.1606 29.0178 20.0639 28.7959 20.0068 28.574C19.7371 27.5374 19.7702 26.4888 19.8982 25.431C20.0114 24.4993 20.0897 22.7446 19.1488 24.4956C16.1144 30.1391 16.223 37.1663 19.9267 42.46C21.3509 44.4955 23.1581 45.7927 25.5214 46.3856C30.329 47.5916 36.0765 47.2261 39.1026 42.9774C40.2589 41.3543 40.9531 39.3722 41.407 37.4306C41.987 34.9504 42.0975 32.5945 41.1897 30.1879C40.3096 27.8523 39.0649 25.6814 38.3772 23.2675Z" fill="black"/>
</g>
<defs>
<clipPath id="clip0_1_253">
<rect width="58" height="58" fill="white"/>
</clipPath>
</defs>
</svg>
