<svg width="657" height="384" viewBox="0 0 657 384" fill="none" xmlns="http://www.w3.org/2000/svg">
<g clip-path="url(#clip0_4605_4)">
<path d="M147.396 303.161C147.396 363.046 128.442 383.717 73.7026 383.717C18.9645 383.717 7.62939e-06 363.046 7.62939e-06 303.161V6.37121H26.3148V273.477C26.3148 298.386 40.0051 308.453 73.6923 308.453C107.38 308.453 121.07 298.386 121.07 273.477V6.37121H147.396V303.161ZM243.885 377.361H170.193V302.107H243.885C282.836 302.107 291.263 292.04 291.263 267.131V6.37121H317.589V296.794C317.589 356.162 304.426 377.361 243.885 377.361ZM413.02 377.361H339.327V302.107H413.02C451.97 302.107 460.397 292.04 460.397 267.131V6.37121H486.723V296.794C486.712 356.162 473.549 377.361 413.02 377.361ZM582.749 383.718C522.208 383.718 509.056 362.52 509.056 303.162V80.5714C509.056 21.2141 522.219 0.0151672 582.749 0.0151672C643.289 0.0151672 656.441 21.2133 656.441 80.5714V303.162C656.441 362.52 643.289 383.718 582.749 383.718ZM582.749 75.2701C543.798 75.2701 535.371 85.3362 535.371 110.245V273.477C535.371 298.386 543.798 308.453 582.749 308.453C621.699 308.453 630.126 298.386 630.126 273.477V110.256C630.126 85.3473 621.699 75.2693 582.749 75.2693V75.2701Z" fill="black"/>
</g>
<g clip-path="url(#clip1_4605_4)">
<path d="M603.061 142.447H504.724C504.424 142.446 504.129 142.375 503.861 142.24C503.594 142.104 503.362 141.908 503.185 141.666L478.879 108.526C466.298 91.3859 455.235 79.689 445.981 73.7697C441.213 70.7117 434.83 68.403 427.029 66.8971C419.4 65.4318 410.135 64.6848 399.515 64.6848H383.782C382.448 64.6848 381.516 66.0179 381.993 67.2762L382.394 68.3385L391.041 91.3214L391.236 91.831C391.374 92.1944 391.618 92.5072 391.938 92.7279C392.257 92.9485 392.637 93.0665 393.025 93.0662H411.944C427.017 93.0662 438.601 94.6597 446.349 97.8045C453.977 100.894 462.321 108.32 471.174 119.865L486.052 139.357C487.017 140.615 486.118 142.435 484.535 142.435H52.5104C52.0019 142.436 51.5144 142.639 51.1548 142.999C50.7952 143.358 50.5929 143.846 50.592 144.355V165.148C50.5931 165.656 50.7955 166.144 51.1551 166.503C51.5147 166.863 52.002 167.065 52.5104 167.066H157.295C157.783 167.066 158.249 167.251 158.596 167.576C165.921 174.46 169.627 181.474 169.627 188.434C169.627 196.824 166.018 202.852 158.607 206.885C150.761 211.156 136.501 213.411 116.216 213.595L114.916 213.607C113.474 213.617 112.563 215.156 113.246 216.425L113.864 217.574L124.809 237.987L125.036 238.421C125.204 238.733 125.454 238.992 125.76 239.17C126.066 239.348 126.416 239.438 126.77 239.429L127.258 239.418C140.001 239.082 150.891 237.293 159.669 234.095C159.983 233.982 160.322 233.953 160.651 234.012C160.98 234.071 161.288 234.215 161.543 234.431C166.235 238.345 169.854 242.638 172.314 247.224C175.11 252.406 176.519 258.162 176.519 264.299C176.519 272.147 173.604 278.24 167.622 282.923C161.435 287.769 154.489 290.132 146.372 290.132C138.126 290.132 129.804 286.739 121.655 280.061C113.236 273.166 104.123 261.968 94.5976 246.78L74.0527 214.181L73.6515 213.541C73.3888 213.123 72.9746 212.824 72.4958 212.704C72.017 212.585 71.5106 212.656 71.0828 212.902L70.4333 213.281L64.7545 216.533L64.0397 216.913C63.8163 217.041 63.6211 217.213 63.4656 217.419C63.3102 217.624 63.1977 217.859 63.135 218.109C63.0723 218.359 63.0606 218.619 63.1006 218.873C63.1406 219.128 63.2315 219.372 63.3679 219.59L63.8009 220.284L84.7478 253.826C100.774 279.432 113.388 295.336 123.313 302.458C133.283 309.613 143.913 313.245 154.901 313.245C167.438 313.245 178.003 309.44 186.304 301.927C194.702 294.349 198.96 284.603 198.96 272.949C198.96 263.789 196.457 255.051 191.538 246.996C187.572 240.513 181.947 234.334 174.785 228.588C174.561 228.41 174.381 228.184 174.256 227.927C174.131 227.67 174.065 227.389 174.063 227.103C174.061 226.817 174.123 226.534 174.244 226.276C174.365 226.017 174.543 225.788 174.763 225.607C178.329 222.669 181.2 219.266 183.345 215.449C186.445 209.92 188.016 203.427 188.016 196.142C188.016 186.146 184.939 177.462 178.827 170.221C177.775 168.974 178.653 167.066 180.279 167.066H434.234C434.486 167.066 434.736 167.115 434.969 167.211C435.202 167.308 435.413 167.449 435.592 167.627C435.77 167.805 435.911 168.017 436.007 168.25C436.104 168.483 436.153 168.733 436.152 168.985V191.935C436.151 192.444 435.949 192.931 435.589 193.291C435.23 193.651 434.742 193.853 434.234 193.854H356.94C355.228 193.854 354.383 195.935 355.597 197.128L356.962 198.483C373.715 214.972 383.673 226.062 386.545 231.439C389.34 236.643 390.759 241.11 390.759 244.709C390.759 249.392 389.351 253.024 386.458 255.799C383.521 258.617 379.805 259.983 375.08 259.983C368.524 259.983 360.701 255.778 351.858 247.462C344.858 240.893 337.425 229.813 329.763 214.538L329.742 214.495L320.986 195.426L320.78 194.971C320.629 194.638 320.385 194.356 320.078 194.157C319.77 193.959 319.412 193.854 319.047 193.854H246.553C244.84 193.854 243.995 195.935 245.209 197.128L246.585 198.483C263.338 214.972 273.296 226.062 276.168 231.439C278.964 236.643 280.383 241.11 280.383 244.709C280.383 249.392 278.974 253.024 276.081 255.799C273.144 258.617 269.427 259.983 264.703 259.983C258.147 259.983 250.323 255.778 241.481 247.462C232.379 238.92 222.605 222.832 212.441 199.665L212.082 198.841C211.972 198.592 211.811 198.369 211.608 198.188C211.405 198.007 211.167 197.87 210.907 197.788C210.648 197.706 210.374 197.68 210.104 197.712C209.834 197.744 209.574 197.833 209.341 197.973L208.572 198.429L203.165 201.681L202.612 202.017C202.232 202.244 201.942 202.597 201.794 203.014C201.645 203.432 201.647 203.888 201.8 204.304L202.016 204.912C210.837 229.629 221.153 249.306 232.682 263.388C238.545 270.564 244.602 276.039 250.67 279.671C256.89 283.389 263.294 285.275 269.709 285.275C280.047 285.275 288.716 281.85 295.478 275.085C302.228 268.331 305.663 259.745 305.663 249.576C305.663 244.015 304.027 238.139 300.809 232.112C298.967 228.654 296.572 225.087 293.647 221.455C292.639 220.208 293.527 218.343 295.131 218.343H316.229C316.998 218.343 317.703 218.81 317.995 219.525C325.45 237.456 333.87 252.2 343.037 263.399C348.9 270.576 354.957 276.05 361.025 279.682C367.245 283.4 373.66 285.287 380.075 285.287C390.413 285.287 399.082 281.861 405.844 275.096C412.605 268.342 416.029 259.756 416.029 249.587C416.029 244.026 414.394 238.15 411.186 232.123C409.344 228.664 406.938 225.097 404.023 221.455C403.016 220.208 403.904 218.343 405.508 218.343H434.234C434.486 218.343 434.736 218.392 434.969 218.489C435.202 218.585 435.413 218.726 435.592 218.905C435.77 219.083 435.911 219.295 436.007 219.528C436.104 219.761 436.153 220.01 436.152 220.263V301.559C436.152 302.036 436.336 302.501 436.662 302.859L436.867 303.087L452.547 320.118L452.786 320.378C453.154 320.768 453.664 320.996 454.195 320.996H461.01C461.519 320.995 462.006 320.793 462.365 320.433C462.725 320.074 462.927 319.586 462.929 319.078V169.007C462.929 168.498 463.132 168.011 463.491 167.651C463.851 167.292 464.338 167.089 464.846 167.088H490.095C490.603 167.089 491.09 167.292 491.45 167.651C491.809 168.011 492.011 168.498 492.012 169.007V299.78C492.012 300.236 492.175 300.68 492.479 301.027L492.674 301.255L508.895 320.042L509.133 320.314C509.491 320.736 510.022 320.975 510.575 320.975H516.697C517.206 320.974 517.693 320.771 518.053 320.411C518.412 320.052 518.615 319.564 518.615 319.055V168.985C518.616 168.477 518.819 167.989 519.178 167.629C519.537 167.27 520.025 167.067 520.533 167.066H603.874C604.382 167.065 604.87 166.863 605.229 166.503C605.588 166.144 605.791 165.656 605.792 165.148V144.355C605.791 143.846 605.589 143.358 605.229 142.999C604.87 142.639 604.382 142.436 603.874 142.435L603.061 142.447Z" fill="#FFFCF7" stroke="black" stroke-width="2.6806" stroke-miterlimit="10"/>
</g>
<defs>
<clipPath id="clip0_4605_4">
<rect width="657" height="384" fill="white"/>
</clipPath>
<clipPath id="clip1_4605_4">
<rect width="558" height="259" fill="white" transform="translate(49 63)"/>
</clipPath>
</defs>
</svg>
