<svg width="58" height="88" viewBox="0 0 58 88" fill="none" xmlns="http://www.w3.org/2000/svg">
<g clip-path="url(#clip0_1_269)">
<path d="M44.4726 54.1038C44.3915 53.9213 44.1862 53.9642 44.143 54.1594C43.7222 56.0605 44.2516 64.077 40.7514 63.0562C38.319 62.3465 38.319 55.816 43.1266 52.1379C49.4661 47.2886 45.2146 35.5019 43.6467 31.4052C43.5114 31.054 43.0428 31.1826 43.0667 31.563C43.3881 36.5209 44.1522 39.9553 42.3293 42.6272C40.2947 45.6074 37.5835 39.8997 40.1824 37.8719C42.7814 35.8422 42.5576 31.7509 40.6906 29.0581C39.1218 26.7949 38.7388 22.8696 38.6587 20.4678C38.6385 19.8557 37.8707 19.7425 37.7105 20.3282C36.9491 23.1095 37.3459 26.076 36.6821 28.8829C36.4216 29.9867 35.9659 31.0713 35.2202 31.9434C34.7203 32.5272 34.062 33.1201 33.3099 33.3518C32.2907 33.6675 31.6518 32.9614 31.5045 32.0018C31.3563 31.0357 31.5597 30.0131 31.8525 29.0927C32.1931 28.0254 32.5246 26.9673 32.7253 25.8626C33.1174 23.7025 33.1202 21.2413 31.6711 19.4388C31.1482 18.7902 30.4725 18.2775 29.7286 17.8971C23.9249 14.9325 26.1814 14.4782 26.0055 8.73671C25.9816 7.93122 24.8713 7.71503 24.5325 8.44753C20.8712 16.3956 21.6132 19.0292 23.321 22.782C25.6281 27.8539 27.9361 34.7019 23.7758 34.3991C20.1052 34.1309 21.6491 24.6338 20.548 21.0899C20.3667 20.5033 19.4957 20.6164 19.4718 21.2295C19.3816 23.6304 18.947 27.5566 17.1665 29.8188C15.0491 32.5126 14.795 36.6039 17.7438 38.6326C20.6916 40.6614 17.6149 46.3682 15.3078 43.388C13.2391 40.7161 14.1063 37.2807 14.47 32.3229C14.4985 31.9416 13.9664 31.8129 13.8136 32.1641C12.0349 36.2609 8.19218 47.1126 14.4101 52.8987C15.9522 54.3327 17.7677 55.5049 18.9618 57.2728C19.759 58.4532 20.1899 60.0085 19.7489 61.3987C19.3153 62.767 17.5762 64.4045 16.1465 63.2259C14.945 62.2361 14.7333 60.1298 14.5151 58.7132C14.3199 57.4416 14.2205 56.159 14.0299 54.8864C13.9931 54.6429 13.8237 53.3402 13.4858 54.1038C12.6462 56.0012 10.0684 63.4457 13.7491 69.3477C14.2684 70.1806 14.8364 70.9852 15.3787 71.8025C16.941 74.1606 18.9793 76.2304 21.5487 77.4993C25.2644 79.3328 29.7001 79.5983 33.6569 78.4115C38.5538 76.9428 42.9692 72.3453 45.0268 67.7897C46.9224 63.5953 46.2973 58.2306 44.4735 54.1038H44.4726Z" fill="black"/>
<path d="M38.8775 0.669922H18.4127C8.49788 0.669922 0.460327 8.63395 0.460327 18.4581V69.2209C0.460327 79.045 8.49788 87.009 18.4127 87.009H38.8775C48.7923 87.009 56.8299 79.045 56.8299 69.2209V18.4581C56.8299 8.63395 48.7923 0.669922 38.8775 0.669922Z" stroke="black" stroke-width="1.01587"/>
</g>
<defs>
<clipPath id="clip0_1_269">
<rect width="58" height="88" fill="white"/>
</clipPath>
</defs>
</svg>
